<svg width="151" height="137" viewBox="0 0 151 137" fill="none" xmlns="http://www.w3.org/2000/svg">
<path d="M146.795 3.06644C145.262 1.74303 143.397 0.864181 141.4 0.525057C139.404 0.185933 137.353 0.399457 135.469 1.14251L7.14386 51.5561C4.90748 52.4351 3.01579 54.0144 1.75177 56.058C0.487759 58.1016 -0.0806291 60.4995 0.131639 62.893C0.343908 65.2865 1.32542 67.5469 2.92935 69.3361C4.53328 71.1253 6.67339 72.3472 9.02954 72.8188L41.6251 79.3394V120.052C41.6232 122.253 42.2745 124.405 43.4965 126.236C44.7186 128.067 46.4564 129.494 48.49 130.336C50.5235 131.178 52.7613 131.398 54.92 130.968C57.0786 130.538 59.0611 129.477 60.6162 127.919L78.6554 109.88L106.034 133.973C108.05 135.763 110.651 136.753 113.347 136.757C114.518 136.756 115.683 136.571 116.797 136.21C118.636 135.627 120.29 134.571 121.593 133.15C122.897 131.728 123.805 129.989 124.227 128.107L150.38 13.9835C150.836 12.01 150.743 9.9495 150.111 8.02522C149.479 6.10094 148.332 4.38631 146.795 3.06713V3.06644ZM45.8985 68.8479L11.2128 61.9107L108.335 23.7548L45.8985 68.8479ZM52.7501 120.047V87.0831L70.2859 102.514L52.7501 120.047ZM113.383 125.621L56.0946 75.2065L138.59 15.6273L113.383 125.621Z" fill="white"/>
</svg>
