<svg width="168" height="168" viewBox="0 0 168 168" fill="none" xmlns="http://www.w3.org/2000/svg">
<path d="M28.4681 83.6719C29.0284 83.6711 29.5789 83.5253 30.0661 83.2486C30.4347 83.0385 30.7583 82.7577 31.0181 82.4223C31.278 82.0869 31.469 81.7035 31.5803 81.294C31.6916 80.8846 31.7209 80.4572 31.6666 80.0364C31.6123 79.6156 31.4754 79.2096 31.2637 78.8419C25.8628 69.4706 25.4198 61.74 28.8192 55.8731C33.4983 47.8111 46.41 44.8317 63.3609 47.903C64.2026 48.0553 65.0704 47.8681 65.7745 47.3824C66.4786 46.8966 66.9616 46.1517 67.118 45.3108C67.1937 44.8934 67.1865 44.4653 67.0967 44.0507C67.0069 43.6362 66.8363 43.2434 66.5947 42.8948C66.353 42.5462 66.0451 42.2486 65.6884 42.0191C65.3317 41.7895 64.9333 41.6325 64.5159 41.557C54.938 39.8245 46.1409 39.8573 39.1223 41.6555C31.8052 43.5291 26.3255 47.3255 23.2247 52.6411C18.6309 60.5784 19.0575 70.5994 25.6594 82.0476C25.9428 82.5419 26.3519 82.9525 26.8452 83.2377C27.3384 83.523 27.8983 83.6727 28.4681 83.6719Z" fill="white"/>
<path d="M118.653 47.1614C129.232 47.2992 135.916 50.2162 139.256 55.9748C143.919 64.0073 140.083 76.5844 128.996 89.6142C128.597 90.0835 128.341 90.6572 128.258 91.2675C128.175 91.8778 128.269 92.4991 128.528 93.0577C128.788 93.6163 129.202 94.089 129.721 94.4196C130.241 94.7502 130.844 94.925 131.46 94.9233C131.929 94.9238 132.392 94.8225 132.818 94.6265C133.244 94.4305 133.623 94.1444 133.928 93.788C140.201 86.415 144.542 78.8452 146.478 71.8987C148.493 64.68 147.932 58.0486 144.838 52.7428C140.31 44.94 131.67 40.8811 118.722 40.7105H118.676C117.821 40.7052 116.998 41.0401 116.39 41.6413C115.781 42.2425 115.436 43.0608 115.431 43.9162C115.426 44.7717 115.761 45.5942 116.362 46.2028C116.963 46.8113 117.782 47.1562 118.637 47.1614H118.653Z" fill="white"/>
<path d="M107.123 136.136C106.389 135.698 105.511 135.568 104.682 135.774C103.852 135.98 103.138 136.505 102.693 137.235C97.3087 146.144 90.6937 151.049 84.0655 151.049C74.7172 151.049 65.6905 141.432 59.8729 125.318C59.5803 124.514 58.9817 123.859 58.2078 123.495C57.4338 123.131 56.5473 123.088 55.7418 123.375C55.3408 123.516 54.9716 123.735 54.6555 124.018C54.3393 124.302 54.0823 124.646 53.8994 125.03C53.7164 125.413 53.6111 125.829 53.5894 126.254C53.5677 126.678 53.6301 127.103 53.773 127.503C57.0543 136.615 61.4741 144.155 66.5699 149.31C71.856 154.672 77.9066 157.513 84.0655 157.513C93.0496 157.513 101.633 151.499 108.232 140.579C108.451 140.215 108.597 139.812 108.66 139.392C108.723 138.973 108.702 138.545 108.599 138.133C108.496 137.721 108.312 137.334 108.059 136.994C107.806 136.653 107.488 136.366 107.123 136.149V136.136Z" fill="white"/>
<path d="M141.652 111.083C139.916 111.075 138.205 111.494 136.671 112.305C135.136 113.116 133.826 114.293 132.855 115.732C131.885 117.171 131.285 118.827 131.108 120.553C130.931 122.28 131.182 124.023 131.841 125.629C118.125 132.028 92.5312 127.201 68.8833 113.613C58.0847 107.412 48.487 99.878 41.1239 91.8291C40.5445 91.1997 39.7402 90.8243 38.8856 90.7843C38.0311 90.7444 37.1953 91.0432 36.5597 91.6158C36.2447 91.9003 35.9891 92.2444 35.8078 92.6282C35.6264 93.0119 35.5228 93.4278 35.503 93.8518C35.4832 94.2758 35.5475 94.6996 35.6923 95.0986C35.837 95.4976 36.0593 95.864 36.3464 96.1767C44.1525 104.708 54.2883 112.675 65.6578 119.205C78.8747 126.794 92.6526 131.88 105.502 133.908C109.3 134.524 113.139 134.843 116.986 134.863C124.573 134.863 131.096 133.452 136.185 130.666C137.578 131.517 139.15 132.034 140.777 132.175C142.404 132.316 144.041 132.079 145.56 131.481C147.08 130.883 148.44 129.941 149.534 128.73C150.628 127.518 151.427 126.069 151.867 124.496C152.307 122.924 152.376 121.271 152.07 119.667C151.764 118.063 151.09 116.552 150.101 115.253C149.113 113.953 147.837 112.9 146.373 112.177C144.909 111.453 143.297 111.079 141.665 111.083H141.652ZM141.652 125.737C140.72 125.738 139.816 125.423 139.086 124.845C138.884 124.567 138.641 124.322 138.364 124.12C137.795 123.379 137.493 122.467 137.508 121.533C137.523 120.599 137.854 119.698 138.446 118.976C139.039 118.253 139.858 117.753 140.771 117.556C141.684 117.358 142.637 117.476 143.475 117.889C144.313 118.302 144.986 118.986 145.386 119.831C145.785 120.675 145.887 121.63 145.675 122.539C145.463 123.449 144.949 124.26 144.218 124.841C143.486 125.422 142.579 125.738 141.645 125.737H141.652Z" fill="white"/>
<path d="M26.9358 111.1C27.1228 104.124 31.0078 95.678 37.987 87.0942C45.5962 77.7591 56.5884 68.7192 68.9423 61.6153C79.8525 55.3481 90.3361 51.1481 101.122 48.848C101.542 48.7659 101.942 48.6009 102.298 48.3624C102.655 48.124 102.96 47.8169 103.196 47.4592C103.432 47.1015 103.594 46.7004 103.674 46.2792C103.753 45.858 103.748 45.4252 103.658 45.0061C103.568 44.587 103.396 44.19 103.151 43.8384C102.906 43.4867 102.593 43.1874 102.231 42.9579C101.869 42.7284 101.465 42.5734 101.042 42.5019C100.62 42.4304 100.187 42.4438 99.7697 42.5414C88.3345 44.9794 77.2012 49.432 65.7136 56.0241C38.092 71.8889 19.6547 95.1169 20.4947 112.842C18.3928 114.232 16.8545 116.325 16.1553 118.745C15.4561 121.166 15.6416 123.757 16.6787 126.053C17.7158 128.35 19.5367 130.202 21.8151 131.278C24.0935 132.354 26.6806 132.583 29.1129 131.925C31.5453 131.267 33.6638 129.765 35.0891 127.687C36.5144 125.609 37.1533 123.092 36.8913 120.586C36.6293 118.08 35.4835 115.749 33.6593 114.01C31.8351 112.272 29.4515 111.241 26.9358 111.1ZM26.3484 125.738C25.5385 125.732 24.7484 125.486 24.0778 125.032C23.4072 124.578 22.8861 123.935 22.5802 123.185C22.2743 122.435 22.1972 121.611 22.3588 120.818C22.5204 120.024 22.9133 119.296 23.4881 118.725C24.0629 118.155 24.7938 117.767 25.5886 117.611C26.3834 117.455 27.2065 117.538 27.9543 117.85C28.702 118.161 29.3409 118.687 29.7903 119.36C30.2397 120.034 30.4795 120.826 30.4795 121.636C30.4743 122.727 30.0364 123.772 29.262 124.541C28.4875 125.31 27.4397 125.74 26.3484 125.738Z" fill="white"/>
<path d="M84.0657 31.605C85.7749 31.6094 87.4596 31.1994 88.9757 30.4102C90.4918 29.621 91.794 28.4761 92.7708 27.0736C98.641 30.9094 103.927 38.558 107.802 48.7692C112.068 60.0534 114.312 73.5033 114.312 87.6652C114.312 99.8649 112.609 111.405 109.39 121.659C109.261 122.062 109.214 122.488 109.251 122.91C109.289 123.331 109.409 123.742 109.607 124.117C109.804 124.494 110.073 124.828 110.4 125.101C110.726 125.374 111.104 125.579 111.51 125.705C112.327 125.957 113.211 125.877 113.969 125.481C114.727 125.085 115.299 124.406 115.559 123.592C118.978 112.718 120.786 100.511 120.786 87.6652C120.786 72.1875 118.237 57.5531 113.413 45.337C108.685 33.367 102.214 24.862 94.6641 20.6752C94.599 18.5943 93.9225 16.5788 92.7191 14.88C91.5157 13.1812 89.8386 11.8745 87.8971 11.1229C85.9557 10.3713 83.8359 10.2082 81.8023 10.6538C79.7687 11.0994 77.9114 12.134 76.4622 13.6286C75.0129 15.1231 74.0359 17.0114 73.6531 19.0578C73.2703 21.1041 73.4987 23.2179 74.3097 25.1353C75.1207 27.0526 76.4784 28.6887 78.2134 29.8393C79.9484 30.9899 81.9838 31.604 84.0657 31.605ZM84.0657 16.9509C84.8756 16.9568 85.6657 17.2023 86.3363 17.6565C87.0069 18.1107 87.528 18.7533 87.8339 19.5033C88.1398 20.2532 88.2168 21.077 88.0553 21.8706C87.8937 22.6643 87.5007 23.3924 86.926 23.963C86.3512 24.5337 85.6203 24.9214 84.8255 25.0773C84.0307 25.2332 83.2075 25.1502 82.4598 24.8389C81.7121 24.5277 81.0732 24.002 80.6238 23.3281C80.1744 22.6543 79.9346 21.8625 79.9346 21.0525C79.9398 19.9612 80.3776 18.9165 81.1521 18.1476C81.9265 17.3787 82.9743 16.9483 84.0657 16.9509Z" fill="white"/>
<path d="M82.3594 79.8525C80.4281 80.2661 78.7184 81.3804 77.5603 82.9804C76.4022 84.5803 75.8778 86.5525 76.0882 88.5164C76.2986 90.4802 77.229 92.2965 78.6997 93.6148C80.1705 94.9331 82.0774 95.6599 84.0525 95.655C84.6217 95.6545 85.1892 95.594 85.7456 95.4745C86.7832 95.2641 87.7686 94.8497 88.6446 94.2553C89.5207 93.6609 90.2699 92.8984 90.8489 92.0121C91.4278 91.1258 91.825 90.1333 92.0172 89.0922C92.2094 88.0511 92.1929 86.9822 91.9686 85.9476C91.7444 84.913 91.3168 83.9332 90.7107 83.0652C90.1047 82.1971 89.3323 81.4581 88.4383 80.8911C87.5443 80.324 86.5466 79.9402 85.503 79.7619C84.4595 79.5836 83.3909 79.6144 82.3594 79.8525Z" fill="white"/>
</svg>
