<svg width="152" height="142" viewBox="0 0 152 142" fill="none" xmlns="http://www.w3.org/2000/svg">
<path d="M151.547 79.5421L143.573 54.7936C143.531 54.5658 143.467 54.3428 143.38 54.1279L127.389 4.38361C126.97 3.10481 126.156 1.99193 125.066 1.20487C123.975 0.41781 122.663 -0.00290655 121.319 0.00316971C119.977 -0.000845173 118.671 0.426334 117.59 1.22179C116.51 2.01725 115.713 3.13893 115.318 4.42165L100.074 51.8236H51.9419L36.6852 4.41848C36.2916 3.14017 35.4995 2.02157 34.4248 1.22648C33.3502 0.431395 32.0494 0.00158866 30.7131 0H30.6782C29.3301 0.00459243 28.0181 0.436471 26.9304 1.23368C25.8427 2.03089 25.0352 3.15246 24.6237 4.4375L8.61662 54.2262C8.61662 54.2706 8.58179 54.3086 8.56596 54.353L0.449998 79.5453C-0.147707 81.3905 -0.150046 83.3773 0.443312 85.2239C1.03667 87.0705 2.19563 88.6834 3.75591 89.8339L73.8768 141.312C74.4924 141.763 75.2362 142.004 75.9989 142C76.7616 141.996 77.5029 141.747 78.1137 141.29L148.247 89.8339C149.808 88.683 150.967 87.0693 151.559 85.2218C152.151 83.3743 152.147 81.387 151.547 79.5421ZM46.7328 59.0948L66.2802 119.876L19.3609 59.0948H46.7328ZM85.7452 119.888L104.488 61.6178L105.296 59.0821H132.693L90.2417 114.04L85.7452 119.888ZM121.379 9.08419L135.112 51.8204H107.62L121.379 9.08419ZM97.7434 59.0662L84.127 101.406L76.0016 126.624L54.2915 59.0662H97.7434ZM30.6466 9.08419L44.4086 51.8204H16.9447L30.6466 9.08419ZM7.97697 83.9732C7.64558 83.7285 7.39962 83.3855 7.274 82.9929C7.14838 82.6003 7.14948 82.1781 7.27716 81.7862L13.2937 63.0853L57.5024 120.326L7.97697 83.9732ZM144.033 83.9732L94.5008 120.31L94.6654 120.091L138.7 63.0727L144.717 81.7735C144.846 82.1657 144.848 82.5887 144.724 82.9824C144.599 83.3761 144.354 83.7206 144.023 83.9669" fill="white"/>
</svg>
