<svg width="156" height="107" viewBox="0 0 156 107" fill="none" xmlns="http://www.w3.org/2000/svg">
<path d="M154.039 47.001C153.039 45.9279 145.867 37.1855 142.001 32.4739C139.944 29.9691 138.32 27.9902 137.637 27.1695L137.583 27.1026L137.522 27.0388C135.931 25.2666 133.671 23.236 130.276 23.236C129.724 23.2431 129.174 23.2878 128.628 23.3698C128.515 23.385 128.399 23.4032 128.278 23.4154C127.531 23.4974 125.213 23.8713 119.704 24.7772C115.438 25.4733 109.006 26.5311 108.031 26.6223L107.815 26.6406L107.605 26.6801C104.558 27.2212 102.541 28.5708 101.645 30.6895C101.173 31.8082 100.664 34.0789 102.541 36.7265C103.007 37.4014 104.622 39.6326 107.398 43.4657C109.244 46.0191 111.319 48.8826 113.11 51.3691L79.1871 59.2756L45.9035 4.87884L45.8426 4.77548L45.7725 4.67517L45.6385 4.47759C44.2765 2.4835 42.5825 0 37.6893 0C37.345 0 36.9855 1.85714e-07 36.5833 0.0334377C35.1817 0.109432 30.057 0.510682 24.1248 0.978807C17.5771 1.49253 8.61642 2.19472 7.45253 2.22511H7.23012L6.98942 2.24943C4.20461 2.51997 2.18457 3.64773 0.987162 5.59318C-1.00851 8.8427 0.554512 12.4904 1.06638 13.6881C2.09316 16.1108 11.4439 35.7781 19.6916 53.1383C25.1759 64.6712 30.837 76.5962 31.3001 77.654C32.1145 79.6301 33.5087 81.3143 35.2999 82.4856C37.091 83.6568 39.1952 84.2603 41.3363 84.2169C42.3468 84.2124 43.3539 84.1003 44.3405 83.8825H44.4045L44.4654 83.8673C48.6883 82.8399 62.0852 79.4475 71.6431 77.0005C72.222 78.0097 72.8314 79.0767 73.4712 80.174C80.1529 91.8771 85.0187 100.343 86.6214 102.504C87.444 103.656 89.8815 107 94.47 107C96.1336 107 97.657 106.574 99.2657 106.122L99.7319 105.991H99.7684C102.977 105.079 145.681 90.1353 147.869 89.1656L147.936 89.1353C149.593 88.4027 152.098 87.2962 152.866 84.454C153.368 82.5937 152.92 80.706 151.531 78.8426L151.51 78.8152L151.488 78.7879C151.229 78.4535 150.27 77.2042 148.969 75.4745C146.187 71.8055 141.693 65.878 137.744 60.7195C143.036 59.3516 149.566 57.6463 150.961 57.2085C154.456 56.1659 155.513 53.959 155.836 52.7309C156.077 51.7734 156.391 49.3264 154.039 47.001ZM56.54 64.6894C51.1136 65.957 47.3325 66.8416 44.9956 67.3948C42.9633 63.3397 38.9811 55.3421 35.0934 47.536C26.0321 29.3217 21.3522 19.9439 18.8903 15.0408L21.3735 14.828C25.438 14.4784 31.0045 14.0012 34.1032 13.7428C39.2096 22.3332 56.7472 51.8312 63.4441 63.0783L56.54 64.6894ZM110.822 84.9465C103.446 87.3783 99.4485 88.7066 97.2883 89.4271C95.3688 86.284 91.1459 79.2378 87.3953 72.9545L122.647 63.9933C124.17 66.0634 127.086 69.9877 132.842 77.651C127.336 79.487 118.156 82.5207 110.822 84.9465ZM127.845 47.9737L120.606 38.3893C124.771 37.6628 127.169 37.2433 128.573 36.991L132.229 41.5142L135.867 46.0191C133.369 46.624 130.462 47.3323 127.845 47.9737Z" fill="white"/>
</svg>
