<svg width="198" height="182" viewBox="0 0 198 182" fill="none" xmlns="http://www.w3.org/2000/svg">
<path d="M178.156 89.3634C177.234 78.0319 174.214 66.9707 169.248 56.7438L197.341 46.5431C195.126 41.955 192.527 37.5619 189.573 33.4106L176.403 38.2088C164.898 22.0787 148.423 10.1654 129.5 4.29416C110.578 -1.57708 90.2518 -1.08242 71.6373 5.70234C53.0227 12.4871 37.1459 25.1877 26.4395 41.8583C15.7331 58.5289 10.7876 78.25 12.3608 98L25.5612 93.149C25.9801 98.209 26.8166 103.226 28.0623 108.148L0.0065918 118.386C2.78313 129.405 7.58201 139.813 14.1591 149.079L29.0144 143.669L29.0295 143.699C38.0456 156.389 50.2055 166.518 64.3163 173.092C86.113 183.223 111.038 184.296 133.624 176.075C156.211 167.853 174.614 151.009 184.798 129.237C191.407 115.111 194.22 99.5055 192.958 83.9608L178.156 89.3634ZM156.092 115.779C149.489 129.925 137.544 140.872 122.878 146.22C108.211 151.568 92.0229 150.878 77.8644 144.304C71.4527 141.315 65.6382 137.185 60.7045 132.116L45.7057 137.586C37.6501 129.283 32.2022 118.802 30.0344 107.437L58.1808 97.1839C57.1805 92.0445 56.8679 86.7949 57.2514 81.5731L44.0132 86.3863C44.7144 76.8885 47.7147 67.7038 52.7555 59.6236C57.7962 51.5434 64.7263 44.8102 72.9483 40.0043C81.1703 35.1984 90.4377 32.464 99.9517 32.0366C109.466 31.6093 118.941 33.5019 127.561 37.5514H127.606C134.001 40.5527 139.799 44.687 144.721 49.7544L157.898 44.9639C161.534 48.7055 164.657 52.9132 167.185 57.4767L139.152 67.753C144.803 77.8449 147.37 89.3728 146.534 100.909L161.404 95.4989C160.881 102.526 159.081 109.398 156.092 115.779Z" fill="#4CAF50"/>
</svg>
