<svg width="23" height="43" viewBox="0 0 23 43" fill="none" xmlns="http://www.w3.org/2000/svg">
<path d="M18.871 21.5L0.825468 2.95513C0.676897 2.80568 0.559439 2.62825 0.479891 2.43311C0.400343 2.23796 0.360285 2.02898 0.362036 1.81826C0.363785 1.60753 0.40731 1.39925 0.490089 1.20545C0.572868 1.01166 0.693256 0.836204 0.844292 0.689244C0.995325 0.542285 1.174 0.426737 1.36999 0.349287C1.56597 0.271838 1.77538 0.234025 1.98607 0.238036C2.19676 0.242047 2.40457 0.287804 2.59747 0.372657C2.79036 0.45751 2.96451 0.579775 3.10984 0.732378L22.2348 20.3886C22.5243 20.6862 22.6863 21.0849 22.6863 21.5C22.6863 21.9151 22.5243 22.3138 22.2348 22.6114L3.10984 42.2676C2.96451 42.4202 2.79036 42.5425 2.59747 42.6273C2.40457 42.7122 2.19676 42.758 1.98607 42.762C1.77538 42.766 1.56597 42.7282 1.36999 42.6507C1.174 42.5733 0.995325 42.4577 0.844292 42.3108C0.693256 42.1638 0.572868 41.9883 0.490089 41.7946C0.40731 41.6008 0.363785 41.3925 0.362036 41.1817C0.360285 40.971 0.400343 40.762 0.479891 40.5669C0.559439 40.3718 0.676897 40.1943 0.825468 40.0449L18.8731 21.5H18.871Z" fill="white"/>
</svg>
