<svg width="64" height="64" viewBox="0 0 64 64" fill="none" xmlns="http://www.w3.org/2000/svg">
<path d="M63.8 32C63.8 34.9309 63.5456 37.3 60.6147 37.3H37.3V60.6147C37.3 63.5403 34.9309 63.8 32 63.8C29.0691 63.8 26.7 63.5403 26.7 60.6147V37.3H3.38525C0.45965 37.3 0.199951 34.9309 0.199951 32C0.199951 29.0691 0.45965 26.7 3.38525 26.7H26.7V3.3853C26.7 0.454396 29.0691 0.199997 32 0.199997C34.9309 0.199997 37.3 0.454396 37.3 3.3853V26.7H60.6147C63.5456 26.7 63.8 29.0691 63.8 32Z" fill="white"/>
</svg>
